<?xml version="1.0" encoding="utf-8"?><svg viewBox="0 0 280 280" xmlns="http://www.w3.org/2000/svg" xmlns:xlink="http://www.w3.org/1999/xlink"><style>:root>svg{display:none}:root>svg:target{display:block}</style><svg viewBox="0 0 32 12" id="arrow" xmlns="http://www.w3.org/2000/svg"><path stroke="#000" stroke-width="2" d="M0 6h26"/><path d="M32 6l-6.75 5.196V.804L32 6z"/></svg><svg viewBox="0 0 280 280" id="cat-pro" xmlns="http://www.w3.org/2000/svg"><path d="M250.2 95.6a30.402 30.402 0 019-9.2c2-1.4 3.2-1.4 4.4 1.2 1.6 3.8 3 7.8 1.8 12a4.577 4.577 0 00.8 4.2c1.2 1.6 2.2 3.2 3.2 4.6a12.54 12.54 0 011.8 12.4 10.865 10.865 0 00-.4 6.2c.4 1.98.4 4.02 0 6a7.502 7.502 0 01-5.4 6.4 10.424 10.424 0 00-6.4 4 2.104 2.104 0 01-1.8 1c-2.4.4-8.4-5-8.4-7.4v-1.2c.2-7.2-.2-7.8-6.8-10.8a8.779 8.779 0 01-3.6-2.4c-1.2-1.6-2.8-1.4-4.6-.8-1.8.6-2.8 1.8-2.6 3.8.603 4.842.804 9.725.6 14.6.013.556.15 1.103.4 1.6 6.2 9 8.6 19.6 11.6 29.8 2.4 7.8 6.8 12 14.8 12.6 1.28.102 2.551.303 3.8.6a8.322 8.322 0 016.8 6.4c1.4 4.2.6 5.2-3.6 5.2h-13a6.481 6.481 0 01-4.6-1.6 23.413 23.413 0 00-6.8-4 14.525 14.525 0 01-6.8-5.2 57.213 57.213 0 00-8-9c-5.6-5.8-11.6-11.4-16.8-17.4a22.758 22.758 0 01-6.4-15.2c0-1.8-.4-2.6-2.4-1.8a3.865 3.865 0 01-2 .6c-5.6 0-8.4 3.4-10.4 8.4-1.8 4.2-4.2 8.2-6.4 12.4a20.786 20.786 0 00-2 8.4c0 4.8 1.2 6.4 5.6 8 2.8 1 5.4 2 6.8 4.8 1.6 3.2 1.2 4-2.2 4.2h-13.6a3.763 3.763 0 01-3.8-2.2l-3.6-6a12.103 12.103 0 01-1.4-10.8c.866-3.473.934-7.097.2-10.6a16.841 16.841 0 013.4-14c1.2-1.4 1.2-2-.8-2.4a100.105 100.105 0 01-23.6-8.2.197.197 0 01-.141-.059.197.197 0 01-.059-.141c-6.4-2.4-7.6-2-9.4 4.6-1.6 5.6-3.2 11.2-4.4 17-1.4 6.4.2 12.4 2.2 18.4.8 2.4 3.2 2.2 5 2.8 4 1.2 7.4 2.8 9 7 1.4 3.2 1.2 3.6-2.2 3.6-3.4 0-6.8-.2-10.4 0a13.278 13.278 0 01-8.4-2.8c-9.6-6.4-12.4-16.2-13.2-26.8-.4-6.6-4-11.8-8.2-16.8-.8-1-1.6-1.4-2.8-.6a88.649 88.649 0 01-13.4 6 53.421 53.421 0 00-24.4 17.6 21.26 21.26 0 00-4.4 10.2c-.6 3.6.4 5.2 4 6.2s5.4 3 5.8 6.8c.2 1.6-.4 2.4-2 2.4H53.4a3.308 3.308 0 01-2.6-1.6 17.121 17.121 0 01-3.8-11c-.105-6.91.498-13.813 1.8-20.6a12.594 12.594 0 016.8-9.6c11.8-5.6 18-16.2 23.6-27.2 1.2-2.2.2-2.6-1.8-2.4a32.94 32.94 0 00-15.4 6.4 141.256 141.256 0 00-16.6 14.2 33.343 33.343 0 01-20.6 9.8c-14.6.8-21.4-7.4-20.8-20.6a19.378 19.378 0 014.8-12.2 8.504 8.504 0 019-3c3 .8 3.8 2.4 2.6 5.4-.6 1.2-1.4 2.2-2 3.4a15 15 0 00-2 4c-2.2 6 .8 10.2 7 10.8 6.6.6 12-2.2 17-6.2a89.903 89.903 0 0016-16.6A41.579 41.579 0 0185.2 97c4.6-.6 8.6-2.6 13-3.8a83.02 83.02 0 0125.4-3.6 26.001 26.001 0 0011.6-2.2c9.8-4 20-4 30.2-2 8 1.6 16 3.6 23.8 5.6a33.16 33.16 0 0014-.4 135.58 135.58 0 0126.8-4 36.32 36.32 0 0117.2 3.4c4 1.8 4 1.8 3 5.6z"/></svg><svg viewBox="0 0 280 280" id="cat-slim" xmlns="http://www.w3.org/2000/svg"><path d="M179.68 29h-.76a6.956 6.956 0 00-2.92 3.147 30.524 30.524 0 00-2.58 6.75 3.214 3.214 0 01-1.022 1.827c-.535.48-1.217.77-1.938.825a14.755 14.755 0 00-6.105 2.543 14.57 14.57 0 00-4.355 4.94 53.806 53.806 0 00-3.7 7.917c-2.84 7.284-5.02 14.806-7.7 22.15-1.26 3.344-1.32 3.344-5.12 3.344-4.54 0-4.22-.692-4.28 4.256 0 1.564.48 2.355 2.16 2.276.52 0 1.3-.257 1.5.416.2.673-.48.97-.88 1.366a18.05 18.05 0 01-8.66 4.83c-3.8 1.009-7.68 1.8-11.38 3.028-9.5 3.147-18.28 7.541-25.12 14.984a55.305 55.305 0 00-9.48 15.518c-7.34 17.102-10.9 35.114-13.66 53.305-1.3 8.531-2.22 17.102-2.92 25.732C70.4 212.39 70 216.685 70 221h66.66a4.278 4.278 0 00-.46-2.534 9.9 9.9 0 00-3.025-4.032 10.039 10.039 0 00-4.635-2.044c-1.4-.317-1.56-.733-.7-1.821a20.41 20.41 0 003.18-6.136c3.26-9.521 4.52-19.458 6.1-29.295a58.966 58.966 0 016.88-21.437 42.908 42.908 0 0111.18-12.609c1.66-1.247 1.72-1.247 2 .871.2 1.406.24 2.851.34 4.276.6 9.351.48 18.734-.36 28.067a120.805 120.805 0 00-.3 21.774A147.413 147.413 0 00161.4 221H188a10.665 10.665 0 00-2.858-5.7 10.85 10.85 0 00-5.622-3.088 18.173 18.173 0 00-7.52.395c-1.2.278-1.7 0-1.8-1.286a110.44 110.44 0 012-31.314 348.463 348.463 0 006.12-35.985 34.886 34.886 0 014.56-13.856c2.38-4.196 4.46-8.551 6.8-12.767a11.506 11.506 0 00.84-10.273c-.54-1.405-1.06-2.83-1.72-4.176-2-3.86-4-7.68-5.84-11.58-.98-1.98-.76-2.217 1.42-2.276 3.26 0 3.26 0 3.32-3.246V84.54c0-1.365-.52-2.117-2-1.979h-3.04c-1.38 0-1.78-.574-1.44-1.98a12.342 12.342 0 013.822-5.882 12.54 12.54 0 016.438-2.886 44.446 44.446 0 0113.24.851 2.017 2.017 0 001.512-.126c.468-.237.823-.647.988-1.14.8-1.98 1.68-3.96 2.58-5.939a1.96 1.96 0 00-.2-2.256c-6.4-8.037-13.34-15.538-22.8-20.348a2.973 2.973 0 01-1.165-.887 2.939 2.939 0 01-.595-1.33 38.465 38.465 0 00-2.54-8.235A6.944 6.944 0 00179.68 29z"/></svg><svg viewBox="0 0 32 32" id="clock" xmlns="http://www.w3.org/2000/svg"><path d="M28 16.614c0-6.713-5.085-12.201-11.5-12.592V2.5h6.25c.967 0 .967-1.5 0-1.5h-14c-.967 0-.967 1.5 0 1.5H15v1.524c-6.398.41-11.464 5.89-11.464 12.59 0 3.815 1.641 7.234 4.236 9.547.452.403.513 1.11.09 1.544l-1.434 1.473c-.613.63.362 1.582.976.951l1.88-1.93a1.058 1.058 0 011.226-.191 11.878 11.878 0 005.258 1.221c1.841 0 3.587-.42 5.154-1.17a1.058 1.058 0 011.216.195l1.826 1.875c.614.63 1.59-.322.977-.95l-1.357-1.394c-.426-.438-.361-1.15.098-1.552C26.324 23.92 28 20.47 28 16.614zm-1.36 0c0 6.193-4.867 11.213-10.872 11.213S4.895 22.807 4.895 16.614c0-6.192 4.868-11.212 10.873-11.212 6.005 0 10.873 5.02 10.873 11.212zm-11.632.552c0 1.017 1.563.954 1.563-.043V8.94c0-1.008-1.563-1.008-1.563 0v8.225zm-4.677-5.751a1.086 1.086 0 10.002-2.173 1.086 1.086 0 00-.002 2.173zm10.873 0a1.086 1.086 0 10.002-2.173 1.086 1.086 0 00-.002 2.173zM11.418 23.35a1.086 1.086 0 11-2.172-.002 1.086 1.086 0 012.172.002zm4.35 3.256a1.086 1.086 0 10-1.088-1.086c0 .6.487 1.085 1.088 1.085zm-7.611-9.832c0 .6-.487 1.085-1.088 1.085a1.086 1.086 0 111.088-1.085zm16.31 1.085a1.086 1.086 0 10-1.088-1.085c0 .6.487 1.085 1.087 1.085zm-2.175 5.491c0 .6-.487 1.085-1.088 1.085a1.086 1.086 0 111.087-1.085z" fill="#fff"/></svg><svg viewBox="0 0 32 32" id="eat" xmlns="http://www.w3.org/2000/svg"><path d="M6.5 2v5.5c0 1.486 1.08 2.632 2.5 2.91V2c0-1.29 2-1.29 2 0v8.41c1.42-.278 2.5-1.424 2.5-2.91V2c0-1.29 2-1.29 2 0v5.5c0 2.597-1.988 4.597-4.5 4.935V30c0 1.29-2 1.29-2 0V12.435c-2.512-.338-4.5-2.338-4.5-4.935V2c0-1.29 2-1.29 2 0zm17.207-.707C23.09.676 22 1.128 22 2v28c0 1.29 2 1.29 2 0v-9h3.5a1 1 0 001-1c0-5.492-.763-9.72-1.734-12.79-.962-3.04-2.15-5.009-3.059-5.917zM26.491 19H24V5.519c1.855 4.195 2.41 8.94 2.491 13.481z" fill="#fff"/></svg><svg viewBox="0 0 13 20" id="facebook" xmlns="http://www.w3.org/2000/svg"><path d="M11.5.833H8.75A4.63 4.63 0 005.51 2.15a4.45 4.45 0 00-1.343 3.177v2.697h-2.75v3.595h2.75v7.191h3.666v-7.19h2.75l.917-3.596H7.833V5.327a.89.89 0 01.269-.635.926.926 0 01.648-.263h2.75V.833z" stroke="#666" stroke-width="1.1" stroke-linecap="round" stroke-linejoin="round" fill="none"/></svg><svg viewBox="0 0 78 80" id="gift" xmlns="http://www.w3.org/2000/svg"><path d="M64.016 34.713H14.03c-1.754 0-3.182-1.418-3.182-3.16v-9.469c0-1.742 1.428-3.16 3.182-3.16h49.984c1.754 0 3.18 1.418 3.18 3.16v9.47c0 1.741-1.426 3.159-3.18 3.159zM14.03 21.346a.751.751 0 00-.744.738v9.47c0 .406.334.737.744.737h49.984a.74.74 0 00.743-.738v-9.469a.75.75 0 00-.743-.738H14.03zM57.045 67.15H20.999c-3.377 0-6.125-2.73-6.125-6.087V33.502c0-.669.546-1.211 1.219-1.211s1.219.542 1.219 1.21v27.562c0 2.02 1.654 3.664 3.687 3.664h36.046c2.032 0 3.686-1.644 3.686-3.664V33.502c0-.669.546-1.211 1.219-1.211.672 0 1.218.542 1.218 1.21v27.562c0 3.356-2.747 6.086-6.123 6.086zm-18.022 0a1.215 1.215 0 01-1.22-1.212V33.502c0-.669.547-1.211 1.22-1.211.672 0 1.218.542 1.218 1.21v32.436c0 .67-.545 1.212-1.218 1.212zM23.811 21.342c-3.814-2.054-5.238-6.809-3.173-10.6 2.064-3.79 6.848-5.205 10.665-3.155 5.814 3.13 8.954 11.86 9.084 12.23l-2.3.804c-.029-.082-2.961-8.221-7.944-10.903-2.635-1.416-5.937-.439-7.36 2.177-1.426 2.617-.444 5.9 2.19 7.317l-1.162 2.13z" fill="#fff"/><path d="M54.231 21.342l-1.16-2.13a5.376 5.376 0 002.622-3.208 5.327 5.327 0 00-.431-4.109 5.382 5.382 0 00-3.226-2.604 5.426 5.426 0 00-4.134.427c-4.982 2.681-7.915 10.82-7.944 10.902l-2.3-.803c.131-.37 3.27-9.1 9.084-12.23a7.859 7.859 0 015.99-.617 7.8 7.8 0 014.674 3.772 7.72 7.72 0 01.623 5.952 7.788 7.788 0 01-3.798 4.648zm7.719 29.59H16.093a1.215 1.215 0 01-1.219-1.211c0-.669.546-1.211 1.219-1.211H61.95c.672 0 1.218.542 1.218 1.21 0 .67-.545 1.212-1.218 1.212z" fill="#fff"/></svg><svg viewBox="0 0 16 16" id="instagram" xmlns="http://www.w3.org/2000/svg"><path d="M7.984.063c1.334 0 2.422.015 3.266.046.719.032 1.36.157 1.922.375a3.968 3.968 0 012.312 2.313c.22.562.344 1.203.375 1.922.032.843.047 1.932.047 3.265 0 1.334-.015 2.422-.047 3.266-.03.719-.156 1.36-.375 1.922a3.987 3.987 0 01-.906 1.406 3.987 3.987 0 01-1.406.906c-.563.22-1.203.344-1.922.375-.844.032-1.932.047-3.266.047a91.88 91.88 0 01-3.265-.047c-.719-.03-1.36-.156-1.922-.375a3.987 3.987 0 01-1.406-.906 3.987 3.987 0 01-.907-1.406C.266 12.609.141 11.969.11 11.25a91.735 91.735 0 01-.046-3.266c0-1.333.015-2.421.046-3.265.032-.719.157-1.36.375-1.922a3.98 3.98 0 01.907-1.406A3.987 3.987 0 012.797.484C3.359.266 4 .141 4.719.11A91.733 91.733 0 017.984.063zm0 1.03c-1.385 0-2.515.016-3.39.048-.563.02-1.084.12-1.563.296a2.853 2.853 0 00-1.594 1.594 5 5 0 00-.296 1.563 98.83 98.83 0 00-.047 3.39c0 1.386.015 2.516.047 3.391.02.563.12 1.083.296 1.563.313.75.844 1.28 1.594 1.593.48.177 1 .276 1.563.297.875.031 2.005.047 3.39.047 1.386 0 2.516-.016 3.391-.047a5.015 5.015 0 001.563-.297 2.852 2.852 0 001.593-1.594c.177-.479.276-1 .297-1.562.031-.875.047-2.005.047-3.39 0-1.386-.016-2.516-.047-3.391a5.015 5.015 0 00-.297-1.563 2.853 2.853 0 00-1.594-1.594c-.479-.177-1-.276-1.562-.296a98.803 98.803 0 00-3.39-.047zm0 10.063c.875 0 1.623-.31 2.243-.93.62-.62.93-1.367.93-2.242s-.31-1.622-.93-2.242a3.056 3.056 0 00-2.243-.93c-.875 0-1.622.31-2.242.93-.62.62-.93 1.367-.93 2.242s.31 1.623.93 2.243c.62.62 1.367.93 2.242.93zm0-7.234c1.125 0 2.084.396 2.875 1.187.792.792 1.188 1.75 1.188 2.875s-.396 2.084-1.188 2.875c-.791.792-1.75 1.188-2.875 1.188s-2.083-.396-2.875-1.188c-.791-.791-1.187-1.75-1.187-2.875s.396-2.083 1.187-2.875c.792-.791 1.75-1.187 2.875-1.187zm5.188-.156c0 .26-.094.481-.281.664a.949.949 0 01-.688.273.904.904 0 01-.664-.273.904.904 0 01-.273-.664c0-.271.09-.5.273-.688a.891.891 0 01.664-.281.93.93 0 01.68.289.93.93 0 01.289.68z" fill="#666"/></svg><svg viewBox="0 0 30 32" id="leaf" xmlns="http://www.w3.org/2000/svg"><path d="M27.844 2.767c-.1-.45-.48-.767-.912-.767h-.005c-4.938.033-16.945.916-21.793 8.38-2.518 3.878-2.735 8.913-.644 14.965.016.047.048.079.07.122-.747 1.973-1.037 3.286-1.044 3.323-.11.54.214 1.072.72 1.188a.88.88 0 00.197.022c.433 0 .822-.321.916-.79.02-.102 2.409-10.373 10.854-16.378.431-.306.547-.927.26-1.387-.288-.46-.87-.585-1.3-.277-4.79 3.405-7.739 8.008-9.473 11.656-1.242-4.578-.916-8.377.986-11.305 3.743-5.764 12.622-7.154 17.982-7.448C23.505 5.872 22.245 9.174 22.245 15c0 3.12-.83 5.522-2.465 7.14-2.62 2.591-6.88 2.834-9.993 2.584-.518-.045-.967.371-1.006.922-.04.55.347 1.03.863 1.072.623.051 1.29.082 1.981.082 3.17 0 6.87-.663 9.43-3.194 2.034-2.011 3.065-4.906 3.065-8.605 0-9.099 3.216-11.096 3.232-11.105.39-.209.594-.677.492-1.129z" fill="#fff"/></svg><svg viewBox="0 0 27 34" id="logo-academy" xmlns="http://www.w3.org/2000/svg"><path d="M13.643.016L13.5 0 0 1.407v24.606L13.5 34 27 26.013V1.407L13.643.016zm11.591 25L13.5 31.956 1.766 25.015V14.93l11.685 6.916.02 1.253-8.017-4.743-.011 1.225 8.046 4.809.02 1.286-8.045-4.758-.01 1.226L13.5 26.95l8.124-4.833V16.91l3.62-2.15-.01 10.256zm0-11.564l-3.22 1.88-1.482.875-7.065-4.187-.011 1.225 6.04 3.573-.053.031-.13.076-.86.492-4.986-2.948-.011 1.225 3.936 2.328-.933.61-.021.012-2.971-1.742-.011 1.225 1.947 1.135-1.988 1.186-11.618-6.872 11.638-6.958 11.8 6.834zm0-1.225L13.44 5.31 1.766 12.22V2.99L13.5 1.764 25.234 2.99v9.237z"/></svg><svg viewBox="0 0 19 14" id="mail" xmlns="http://www.w3.org/2000/svg"><path stroke="#222" stroke-width="1.3" d="M1.179 6v8m17-8v8m-17.65-.65h18m-18-12h18m-.649 1.832L9.53 9.677 1.18 3.182V1.65h16.7v1.532z" fill="none"/></svg><svg viewBox="0 0 19 15" id="mark" xmlns="http://www.w3.org/2000/svg"><path d="M7 11.718L1.3 5.27.25 6.457 7 14.094 18.25 1.366 17.2.094 7 11.718z" fill="#68B738"/></svg><svg viewBox="0 0 20 20" id="phone" xmlns="http://www.w3.org/2000/svg"><path d="M17.9 9.4H9.4v1.2h8.5l-2.1 2.1.9.9 3.1-3.1a.75.75 0 000-.9l-3.1-3.1-.9.9 2.1 2zm-9.8 10v-6.2a.65.65 0 00-.6-.6H3.1a1.22 1.22 0 001.2 1.2h2.5v5H3.1a1.789 1.789 0 01-1.9-1.7v-14a1.77 1.77 0 011.7-1.8h3.9v5H4.4a1.22 1.22 0 00-1.2 1.2h4.4a.65.65 0 00.6-.6V.6a.86.86 0 00-.7-.6H3.1A3 3 0 000 2.9v13.9a2.89 2.89 0 002.9 3.1h4.6a.5.5 0 00.6-.5z"/></svg><svg viewBox="0 0 32 32" id="tub" xmlns="http://www.w3.org/2000/svg"><path d="M12.607-.01c-1.76 0-3.188 1.525-3.188 3.407 0 1.882 1.427 3.407 3.188 3.407 1.76 0 3.187-1.524 3.187-3.407S14.367-.01 12.607-.01zm0 5.476c-1.07 0-1.936-.926-1.936-2.07 0-1.142.866-2.069 1.935-2.069 1.07 0 1.936.927 1.936 2.07 0 1.143-.866 2.069-1.936 2.069zm9.17 13.007c-1.707 0-3.09 1.479-3.09 3.301 0 1.824 1.384 3.302 3.09 3.302 1.705 0 3.087-1.478 3.087-3.302 0-1.823-1.383-3.3-3.088-3.3zm0 5.013c-.885 0-1.602-.766-1.602-1.71 0-.947.717-1.713 1.601-1.713s1.602.766 1.602 1.712c0 .945-.718 1.711-1.602 1.711zM6.885 20.113c0-1.383 1.047-2.503 2.34-2.503 1.295 0 2.342 1.12 2.342 2.503s-1.047 2.503-2.341 2.503c-1.294 0-2.341-1.12-2.341-2.503zm19.04-8.652c.804.663 1.461 1.204.904 1.918l-.01.011c-.34.336-.639.633-1.706-.535-3.086-2.226-6.537-1.933-9.17.708-3.429 3.439-8.329 3.084-11.743-.053-.294-.42-.294-.865-.123-1.127.171-.262.833-.524 1.201-.132 2.61 2.79 6.83 2.683 9.562.105 3.139-2.96 7.52-3.829 11.084-.895zm3.72-3.304v18.659c.08 2.054-1.66 4.185-3.788 4.19-.858.003-20.581.003-20.581.003-2.256.145-3.923-2.124-3.923-4.193V8.279c.003-.188.052-.776.588-.776h.307s.675-.027.675.812v18.133c-.142 1.347.712 2.625 2.059 2.857.478.026 20.655.026 20.655.026 1.38.157 2.392-1.25 2.438-2.49.011-.287.004-14.931.002-18.54v-.06c.002-.182.045-.739.538-.739h.506c.15.005.524.077.524.655z" fill="#fff"/></svg><svg viewBox="0 0 23 13" id="vk" xmlns="http://www.w3.org/2000/svg"><path d="M.07 1.993c0-.622.423-.957 1.27-1.006l3.26.018c.22 0 .365.091.438.274.336.915.711 1.704 1.127 2.369.416.664.96 1.43 1.63 2.295a.3.3 0 00.285.165.276.276 0 00.24-.128l.067-.201.021-3.164c0-.22-.062-.366-.186-.44-.124-.073-.353-.127-.689-.164-.263-.037-.394-.17-.394-.402a.21.21 0 01.022-.11C7.467.706 8.343.31 9.787.31l1.226-.018c.554 0 1.014.116 1.379.347.364.232.547.598.547 1.098v4.151a.562.562 0 00.284.092c.22 0 .409-.11.57-.33 1.604-1.877 2.472-3.133 2.604-3.767a.29.29 0 01.044-.092c.102-.182.27-.34.503-.475.233-.134.438-.226.613-.274a.507.507 0 01.197-.037h3.392l.219.018c.292 0 .518.116.678.348a.63.63 0 01.12.238c.022.085.037.17.044.256.008.085.011.134.011.146v.128c-.102.5-.36 1.033-.777 1.6-.415.567-.944 1.18-1.586 1.838-.642.659-1.044 1.092-1.204 1.299-.131.146-.197.28-.197.402 0 .098.058.208.175.33l3.195 3.365a.939.939 0 01.263.64c0 .28-.131.512-.394.695a1.826 1.826 0 01-.941.31l-.372.02h-3.327a.794.794 0 00-.087.008.802.802 0 01-.088.01c-.32 0-.62-.116-.897-.348-.102-.098-.788-.817-2.057-2.158a1.107 1.107 0 00-.307-.238c-.058.195-.135.475-.23.841a63.68 63.68 0 01-.207.787l-.066.31c-.146.427-.452.684-.92.769l-.306.018H9.743c-1.21 0-2.418-.463-3.622-1.39-1.203-.927-2.287-2.125-3.25-3.594-.963-1.469-1.86-3.18-2.691-5.13a1.254 1.254 0 01-.11-.53zM13.223 6.73a1.66 1.66 0 01-.831-.21c-.248-.14-.372-.333-.372-.577V1.737c0-.244-.073-.418-.22-.522-.145-.103-.4-.155-.765-.155l-1.248.036c-.627 0-1.101.092-1.422.275.642.256.963.67.963 1.244v3.218a1.06 1.06 0 01-.438.76 1.405 1.405 0 01-.875.301c-.438 0-.774-.177-1.007-.53C5.87 4.925 5.024 3.559 4.469 2.267l-.197-.476-2.91-.018c-.19 0-.296.01-.318.028-.022.018-.033.07-.033.155 0 .11.015.226.044.348l.46 1.024C2.74 5.974 4.07 8.058 5.509 9.583c1.437 1.524 2.848 2.286 4.234 2.286h2.189c.088 0 .153-.021.197-.064.044-.043.08-.125.11-.247l.043-.183.416-1.61c.117-.219.219-.365.306-.438a.86.86 0 01.57-.201c.35 0 .707.176 1.072.53l1.86 1.975c.117.159.24.238.372.238h3.611c.438 0 .657-.091.657-.274a.312.312 0 00-.066-.183l-3.173-3.31c-.248-.257-.372-.531-.372-.824 0-.292.116-.573.35-.841.19-.244.558-.65 1.105-1.216a28.203 28.203 0 001.434-1.591c.408-.494.678-.942.81-1.345l.065-.237a.243.243 0 01-.022-.12c0-.054-.007-.1-.022-.137H17.82a1.199 1.199 0 00-.525.33l-.131.347c-.365.841-1.32 2.14-2.867 3.896a1.672 1.672 0 01-1.073.366z" fill="#666"/></svg></svg>